<?xml version="1.0" encoding="UTF-8"?>
<svg width="492px" height="400px" viewBox="0 0 492 400" version="1.1" xmlns="http://www.w3.org/2000/svg" xmlns:xlink="http://www.w3.org/1999/xlink">
    <title>Path</title>
    <g id="Page-1" stroke="none" stroke-width="1" fill="none" fill-rule="evenodd">
        <path d="M154.729,400 C340.398,400 441.934,246.124 441.934,112.688 C441.934,108.318 441.845,103.968 441.648,99.636 C461.404692,85.3351796 478.455165,67.6284501 492,47.346 C473.913,55.39 454.45,60.804 434.032,63.245 C454.873,50.744 470.872,30.967 478.421,7.393 C458.605779,19.1519432 436.928325,27.4413764 414.323,31.904 C395.903,12.276 369.679,0 340.641,0 C284.897,0 239.693,45.222 239.693,100.965 C239.693,108.89 240.58,116.596 242.312,123.99 C158.417,119.767 84.025,79.585 34.238,18.486 C25.2708906,33.8963816 20.5543384,51.4105674 20.57,69.24 C20.57,104.274 38.39,135.201 65.49,153.295 C49.4600156,152.805248 33.7819306,148.47385 19.774,140.665 C19.759,141.089 19.759,141.502 19.759,141.955 C19.759,190.858 54.553,231.689 100.741,240.941 C92.066272,243.304343 83.1148991,244.499227 74.124,244.494 C67.631,244.494 61.303,243.855 55.153,242.674 C68.004,282.796 105.268,311.993 149.449,312.809 C114.9,339.898 71.379,356.033 24.078,356.033 C16.0314926,356.039848 7.99156803,355.572705 0,354.634 C44.674,383.279 97.72,399.993 154.734,399.993" id="Path" fill="#FFFFFF"></path>
    </g>
</svg>