<?xml version="1.0" encoding="UTF-8"?>
<svg width="35px" height="28px" viewBox="0 0 35 28" version="1.1" xmlns="http://www.w3.org/2000/svg" xmlns:xlink="http://www.w3.org/1999/xlink">
    <title>Path</title>
    <g id="Page-1" stroke="none" stroke-width="1" fill="none" fill-rule="evenodd">
        <g id="telegram-1" transform="translate(-10.000000, 0.000000)" fill="#FFFFFF" fill-rule="nonzero">
            <path d="M12.1961985,12.68572 C12.1961985,12.68572 27.2801427,6.74791999 32.5114959,4.65707361 C34.5169364,3.82080451 41.3177439,1.14451189 41.3177439,1.14451189 C41.3177439,1.14451189 44.4566523,-0.0262648474 44.1950364,2.81716584 C44.1077909,3.98805833 43.4103093,8.08595055 42.7128277,12.5184662 C41.6664847,18.7908895 40.5330168,25.6486434 40.5330168,25.6486434 C40.5330168,25.6486434 40.3586464,27.572236 38.8764377,27.9067436 C37.394229,28.2412512 34.9528021,26.7359669 34.5169364,26.4013435 C34.168075,26.1505206 27.9776243,22.3870203 25.7106885,20.5471125 C25.1003317,20.0453511 24.4028502,19.0418281 25.7978133,17.8709356 C28.9367218,15.111074 32.6858663,11.6821971 34.9528021,9.50778164 C35.9991451,8.50414297 37.0453675,6.16247374 32.6858663,9.00590444 C26.4954156,13.1039124 20.3920897,16.9509818 20.3920897,16.9509818 C20.3920897,16.9509818 18.9970059,17.7872509 16.3813293,17.0345508 C13.765532,16.2819665 10.7138691,15.2783278 10.7138691,15.2783278 C10.7138691,15.2783278 8.62142437,14.0238663 12.1961985,12.68572 L12.1961985,12.68572 Z" id="Path"></path>
        </g>
    </g>
</svg>